<?xml version="1.0" encoding="utf-8"?>
<!-- Generator: Adobe Illustrator 24.0.1, SVG Export Plug-In . SVG Version: 6.00 Build 0)  -->
<svg version="1.1" id="Camada_1" xmlns="http://www.w3.org/2000/svg" xmlns:xlink="http://www.w3.org/1999/xlink" x="0px" y="0px"
	 viewBox="0 0 92 92" style="enable-background:new 0 0 92 92;" xml:space="preserve">
<style type="text/css">
	.st0{fill-rule:evenodd;clip-rule:evenodd;fill:#FFFFFF;}
</style>
<g>
	<path class="st0" d="M45.9,21.1c-14.3,0-25.7,11.7-25.7,25.9c0,14.2,11.6,25.9,25.7,25.9C60,72.9,71.6,61.2,71.6,47
		C71.6,32.8,60.2,21.1,45.9,21.1z M45.9,64.1c-9.4,0-17-7.7-17-17.1c0-9.5,7.6-17.1,17-17.1c9.4,0,17,7.7,17,17.1
		C62.9,56.5,55.1,64.1,45.9,64.1z"/>
	<path class="st0" d="M70.7,17.5c-2.3,0-4.2,1.8-4.2,4.2s1.8,4.2,4.2,4.2c2.3,0,4.2-1.8,4.2-4.2S73,17.5,70.7,17.5z"/>
	<path class="st0" d="M65.4,0H26.6C12.1,0,0.2,11.8,0,26.2v39.4C0,80.2,11.9,92,26.6,92h38.9C80.1,92,92,80.2,92,65.6V26.4
		C92,11.8,80.1,0,65.4,0z M84.6,62.7c0,12.2-9.9,22.2-22.2,22.2H29.8c-12.3,0-22.2-10-22.2-22.2v-33c0-12.2,9.9-22.2,22.2-22.2h32.5
		c12.3,0,22.2,10,22.2,22.2V62.7z"/>
</g>
</svg>
