<?xml version="1.0" encoding="utf-8"?>
<!-- Generator: Adobe Illustrator 24.0.1, SVG Export Plug-In . SVG Version: 6.00 Build 0)  -->
<svg version="1.1" id="Camada_1" xmlns="http://www.w3.org/2000/svg" xmlns:xlink="http://www.w3.org/1999/xlink" x="0px" y="0px"
	 viewBox="0 0 92 92" style="enable-background:new 0 0 92 92;" xml:space="preserve">
<style type="text/css">
	.st0{fill:#FFFFFF;}
</style>
<path class="st0" d="M20.6,92H1.5V30.5h19.1V92z M18.9,18.9c-2,2-4.8,3.3-7.8,3.3C5,22.1,0,17.1,0,11.1C0,5,5,0,11.1,0
	c6.1,0,11.1,5,11.1,11.1C22.1,14.1,20.9,16.9,18.9,18.9z M92,92h-19V62.1c0-7.1-0.1-16.3-9.9-16.3c-9.9,0-11.4,7.8-11.4,15.8V92h-19
	V30.5h18.3v8.4h0.3c3.7-6.4,10.7-10.2,18-9.9C88.4,29,92,41.7,92,58.3L92,92z"/>
</svg>
