<?xml version="1.0" encoding="utf-8"?>
<!-- Generator: Adobe Illustrator 24.0.1, SVG Export Plug-In . SVG Version: 6.00 Build 0)  -->
<svg version="1.1" id="Camada_1" xmlns="http://www.w3.org/2000/svg" xmlns:xlink="http://www.w3.org/1999/xlink" x="0px" y="0px"
	 viewBox="0 0 92 92" style="enable-background:new 0 0 92 92;" xml:space="preserve">
<style type="text/css">
	.st0{fill:#FFFFFF;}
</style>
<g>
	<path class="st0" d="M66.7,55.6c-1.2-0.6-6.8-3.4-7.8-3.8c-1-0.4-1.8-0.6-2.6,0.6c-0.8,1-3,3.6-3.6,4.4c-0.6,0.6-1.2,0.8-2.4,0.2
		c-3.4-1.2-6.4-3.2-9.2-5.6c-2.6-2.4-4.6-5-6.4-8c-0.6-0.6-0.4-1.6,0.4-2.2c0.6-0.6,1.2-1.4,1.8-2c0.6-0.6,1-1.4,1.2-2
		c0.4-0.6,0.4-1.4,0-2c-0.4-0.6-2.6-6.2-3.6-8.6c-1-2.4-1.8-2-2.6-2h-2.2c-1.2,0-2.2,0.6-3,1.4c-2.6,2.6-4,6-4,9.5
		c0,5.6,4,10.9,4.6,11.7c0.6,0.8,8,12.1,19.6,17.1c2.2,0.8,4.4,1.8,6.6,2.4c2.4,0.6,4.8,0.8,7.2,0.4c2.2-0.2,6.8-2.8,7.8-5.4
		c0.8-1.8,1-3.6,0.4-5C68.7,56.4,67.9,56.2,66.7,55.6z"/>
	<path class="st0" d="M78.6,13.4c-18-17.9-47.1-17.9-64.9,0C-1,27.9-4,50.4,6.4,68.3L0,92l24.3-6.4c6.6,3.6,14.2,5.6,21.8,5.6
		C71.6,91.2,92,70.9,92,45.7C92,33.5,87.2,22,78.6,13.4z M66.3,77.7c-6,3.8-13,5.8-20.2,5.8c-6.8,0-13.6-2-19.4-5.4l-1.4-0.8
		l-14.4,3.8l3.8-13.9l-0.8-1.4C2.6,48,8.2,24.6,26.1,13.6C43.9,2.5,67.5,8.1,78.6,25.6C89.8,43.3,84.2,66.7,66.3,77.7z"/>
</g>
</svg>
